<?xml version="1.0" encoding="utf-8"?>
<!DOCTYPE svg PUBLIC "-//W3C//DTD SVG 1.1//EN" "http://www.w3.org/Graphics/SVG/1.1/DTD/svg11.dtd">
<svg version="1.1" id="Capa_1" xmlns="http://www.w3.org/2000/svg" xmlns:xlink="http://www.w3.org/1999/xlink" x="0px" y="0px" viewBox="0 0 239 138" enable-background="new 0 0 239 138" xml:space="preserve">
<g id="nombre">
	<animate
		id="a6"
		begin="a5·.end"
		attributeName="opacity"
		from="1"
		to="#0"
		repeatCount="1"
		dur="0.7"  
		fill="freeze"
	/>
	<path d="M160.8,90.3h-3.1V47.9h3.1V90.3z"/>
	<path d="M195.6,90.3h-2.4c-0.3,0-0.5-0.1-0.7-0.2c-0.2-0.1-0.3-0.3-0.4-0.6l-5-12.3h-20.8l-5,12.3c-0.1,0.2-0.2,0.4-0.4,0.6
		c-0.2,0.2-0.4,0.2-0.7,0.2h-2.3l17.4-42.5h3.1L195.6,90.3z M167.1,74.9h19l-8.7-21.5c-0.1-0.3-0.3-0.7-0.4-1.2
		c-0.1-0.4-0.3-0.9-0.4-1.4c-0.1,0.5-0.3,0.9-0.4,1.4c-0.1,0.4-0.3,0.8-0.4,1.2L167.1,74.9z"/>
	<g>
		<path d="M155.1,71.9c-1.8-1.7-4.4-2.8-7.7-3.3c1.4-0.3,2.6-0.8,3.7-1.5c1.1-0.6,2-1.4,2.7-2.3c0.7-0.9,1.3-1.8,1.7-2.9
			c0.4-1,0.6-2.1,0.6-3.2c0-1.7-0.3-3.2-0.9-4.6c-0.6-1.3-1.4-2.5-2.6-3.4c-1.2-0.9-2.6-1.8-4.4-2.3c-1.8-0.5-3.9-0.9-6.3-0.9h-12.4
			l0.1,27l2.9,7.7V69.5h10.9c1.8,0,3.4,0.4,4.8,0.8c1.4,0.4,2.6,1.1,3.5,1.8c1,0.8,1.7,1.7,2.2,2.8c0.5,1.1,0.8,2.3,0.8,3.6
			c0,2.9-0.9,5-2.8,6.6c-1.9,1.6-4.7,2.3-8.5,2.3h-8.2l1.1,3h7.2c2.3,0,4.3-0.4,6.1-0.9c1.8-0.5,3.3-1.3,4.5-2.3
			c1.2-1,2.2-2.2,2.8-3.7s1-3.1,1-4.9C157.8,75.9,156.9,73.6,155.1,71.9z M141.9,67.5h-9.4v-17h9.4c3.8,0,6.6,0.6,8.4,2.1
			c1.8,1.5,2.7,3.6,2.7,6.4c0,1.1-0.2,2.1-0.6,3.2c-0.4,1-1.1,2-2,2.8c-0.9,0.8-2,1.4-3.4,1.9C145.6,67.4,143.9,67.5,141.9,67.5z"/>
	</g>
	<path fill="#B45F17" d="M65.4,75.8c0,2.4-0.3,4.5-0.9,6.3c-0.6,1.8-1.4,3.3-2.5,4.6c-1.1,1.2-2.4,2.2-4,2.8
		c-1.6,0.6-3.3,0.9-5.3,0.9c-0.9,0-1.8-0.1-2.7-0.2c-0.9-0.1-1.9-0.4-2.9-0.7c0-0.3,0.1-0.6,0.1-0.8c0-0.3,0.1-0.6,0.1-0.8
		c0-0.2,0.1-0.3,0.2-0.5c0.1-0.1,0.3-0.2,0.6-0.2c0.2,0,0.4,0,0.6,0.1c0.2,0.1,0.5,0.1,0.9,0.2c0.3,0.1,0.8,0.2,1.2,0.2
		c0.5,0.1,1,0.1,1.6,0.1c1.5,0,2.9-0.2,4.1-0.7c1.2-0.5,2.3-1.2,3.1-2.2c0.9-1,1.5-2.2,2-3.8c0.5-1.5,0.7-3.3,0.7-5.3V47.5h3.1V75.8
		z"/>
	<path fill="#B45F17" d="M96.3,89.9h-2.4c-0.3,0-0.5-0.1-0.7-0.2c-0.2-0.2-0.3-0.3-0.4-0.6l-5-12.3H66.9l-2.9,6.6l-1.2,1.1L62,84.7
		c-0.1,0.2-0.6,1.5-0.8,1.7s-0.9,0.1-1.4,0.5l-0.5,1.3l16.6-40.6h3.1L96.3,89.9z M67.8,74.5h19l-8.7-21.5c-0.1-0.3-0.3-0.7-0.4-1.2
		c-0.1-0.4-0.3-0.9-0.4-1.4c-0.1,0.5-0.3,0.9-0.4,1.4c-0.1,0.4-0.3,0.8-0.4,1.2L67.8,74.5z"/>
	<path fill="#B45F17" d="M76.4,47.5h2.4c0.3,0,0.5,0.1,0.7,0.2c0.2,0.1,0.3,0.3,0.4,0.6l14.5,35.2c0.4,0.9,0.7,1.9,0.9,2.9
		c0.2-1.1,0.5-2.1,0.9-2.9l14.4-35.2c0.1-0.2,0.2-0.4,0.4-0.6c0.2-0.2,0.4-0.2,0.7-0.2h2.4L96.6,89.9h-2.7L76.4,47.5z"/>
	<path fill="#B45F17" d="M114.7,89.9h-3.1V47.5h3.1V89.9z"/>
	<g opacity="0.9">
		<polygon points="111.7,67.5 110.6,69.5 110.7,69.5 110.6,69.5 109.7,71.1 110.6,69.5 110.5,69.5 110.6,69.5 131.4,69.5 
			130.4,67.5 		"/>
		<path d="M121.6,47.5h-3.1l-17.4,43h2.3c0.3,0,0.5-0.2,0.7-0.3s0.3-0.4,0.4-0.6l3-7.4l0,0l0,0.1l2-4.8h0l0.9-2h0h0l2-5.2l6.7-16.7
			c0.1-0.4,0.3-0.8,0.4-1.2c0.1-0.4,0.3-0.9,0.4-1.4c0.1,0.5,0.3,0.9,0.4,1.3c0.1,0.4,0.3,0.8,0.4,1.1l5.9,14.6l0,0l0-0.2l2.8,6.6h0
			l0.9,2.5l5,12.4c0.1,0.2,0.2,0.6,0.4,0.7c0.2,0.2,0.4,0.4,0.7,0.4h2.4L121.6,47.5z"/>
	</g>
</g>
<polygon id="t1" fill="none" stroke="#000000" stroke-miterlimit="10" points="201,97 120.1,107 40,97 40,42 120.5,32 201,42 ">
	<animate
		id="a1"
		begin="boton.click"
		attributeName="opacity"
		from="1"
		to="0"
		repeatCount="1"
		dur="0.3" 
		fill="freeze"
	/>
</polygon >
<polygon id="t2" fill="none" stroke="#000000" stroke-miterlimit="10" points="211,100 120.1,114 30,100 30,39 120.5,25 211,39 ">
	<animate
		id="a2"
		begin="a1.end-0.15"
		attributeName="opacity"
		from="0"
		to="1"
		repeatCount="1"
		dur="0.1" 
		fill="freeze"
	/>
	<animate
		id="a2·"
		begin="a2.end"
		attributeName="opacity"
		from="1"
		to="0"
		repeatCount="1"
		dur="0.1" 
		fill="freeze"
	/>
</polygon >
<polygon id="t3" fill="none" stroke="#000000" stroke-miterlimit="10" points="220,103 120.5,121 21,103 21,36 120.5,18 220,36 ">
	<animate
		id="a3"
		begin="a2·.begin"
		attributeName="opacity"
		from="0"
		to="1"
		repeatCount="1"
		dur="0.1" 
	/>
	<animate
		id="a3·"
		begin="a3.end"
		attributeName="opacity"
		from="1"
		to="0"
		repeatCount="1"
		dur="0.1" 
		fill="freeze"
	/>
</polygon>
<polygon id="t4" fill="none" stroke="#000000" stroke-miterlimit="10" points="227,106 120.5,128 13,106 13,33 120.5,10 227,33 ">
	<animate
		id="a4"
		begin="a3·.begin"
		attributeName="opacity"
		from="0"
		to="1"
		repeatCount="1"
		dur="0.1" 
	/>
	<animate
		id="a4·"
		begin="a4.end"
		attributeName="opacity"
		from="1"
		to="0"
		repeatCount="1"
		dur="0.1"  
		fill="freeze"
	/>
</polygon>
<polygon id="t5" fill="none" stroke="#000000" stroke-miterlimit="10" points="236,109 120.5,135 3,109 3,30 120.5,3 236,30 ">
	<animate
		id="a5"
		begin="a4·.begin"
		attributeName="opacity"
		from="0"
		to="1"
		repeatCount="1"
		dur="0.1" 		 
		fill="freeze"
	/>
	<animate
		id="a5·"
		begin="a5.end"
		attributeName="stroke"
		from="#000000"
		to="#B45F17"
		repeatCount="1"
		dur="0.1"  
		fill="freeze"
	/>
	<animate
		id="a5··"
		begin="a5·.end"
		attributeName="opacity"
		from="1"
		to="#0"
		repeatCount="1"
		dur="0.4"  
		fill="freeze"
	/>
</polygon>
<rect id="boton" x="47.5" y="47.5" fill-opacity="0" width="148" height="43"/>
</svg>
