<?xml version="1.0" encoding="utf-8"?>
<!-- Generator: Adobe Illustrator 16.0.0, SVG Export Plug-In . SVG Version: 6.00 Build 0)  -->
<!DOCTYPE svg PUBLIC "-//W3C//DTD SVG 1.1//EN" "http://www.w3.org/Graphics/SVG/1.1/DTD/svg11.dtd">
<svg version="1.1" id="Capa_1" xmlns="http://www.w3.org/2000/svg" xmlns:xlink="http://www.w3.org/1999/xlink" x="0px" y="0px"
	 width="1500px" height="900px" viewBox="0 0 1500 900" enable-background="new 0 0 1500 900" xml:space="preserve">
<g id="nombre">
	
		<animate  fill="freeze" restart="always" calcMode="linear" additive="replace" accumulate="none" dur="0.7" repeatCount="1" to="#0" from="1" attributeName="opacity" begin="a5·.end" id="a6">
		</animate>
	<path d="M1009.205,583.682h-19.456V317.573h19.456V583.682z"/>
	<g>
		<path d="M973.431,468.201c-11.297-10.67-27.614-17.573-48.326-20.712c8.787-1.883,16.318-5.021,23.222-9.414
			c6.904-3.766,12.553-8.786,16.945-14.436c4.394-5.648,8.159-11.297,10.67-18.2c2.511-6.276,3.766-13.18,3.766-20.084
			c0-10.669-1.883-20.084-5.648-28.87c-3.766-8.159-8.786-15.69-16.318-21.339c-7.531-5.648-16.317-11.297-27.614-14.436
			c-11.298-3.138-24.478-5.648-39.54-5.648h-77.824l0.628,169.456l18.2,48.326v-79.707H900c11.297,0,21.339,2.511,30.126,5.021
			c8.786,2.511,16.317,6.903,21.966,11.297c6.276,5.021,10.67,10.669,13.808,17.573c3.139,6.903,5.021,14.436,5.021,22.594
			c0,18.201-5.648,31.381-17.573,41.423S923.85,565.481,900,565.481h-51.465l6.904,18.828h45.188
			c14.435,0,26.987-2.511,38.284-5.648s20.711-8.159,28.243-14.436c7.531-6.275,13.808-13.808,17.573-23.222
			s6.275-19.456,6.275-30.753C990.377,493.306,984.729,478.87,973.431,468.201z M890.586,440.586H831.59V333.892h58.996
			c23.85,0,41.422,3.766,52.72,13.18c11.297,9.414,16.945,22.594,16.945,40.167c0,6.904-1.255,13.18-3.766,20.084
			c-2.511,6.276-6.904,12.552-12.553,17.573c-5.648,5.021-12.552,8.786-21.339,11.925
			C913.808,439.958,903.138,440.586,890.586,440.586z"/>
	</g>
	<path fill="#B45F17" d="M410.46,492.678c0,15.062-1.883,28.243-5.648,39.54s-8.786,20.711-15.69,28.87
		c-6.903,7.531-15.062,13.808-25.104,17.573c-10.042,3.766-20.711,5.648-33.264,5.648c-5.648,0-11.297-0.628-16.945-1.255
		c-5.648-0.628-11.925-2.511-18.201-4.394c0-1.883,0.628-3.766,0.628-5.021c0-1.883,0.627-3.766,0.627-5.021
		c0-1.255,0.627-1.883,1.255-3.138c0.627-0.628,1.883-1.256,3.766-1.256c1.255,0,2.511,0,3.766,0.628
		c1.255,0.628,3.138,0.628,5.648,1.255c1.883,0.628,5.021,1.256,7.532,1.256c3.138,0.627,6.276,0.627,10.042,0.627
		c9.415,0,18.201-1.255,25.732-4.393c7.531-3.139,14.435-7.531,19.456-13.808c5.648-6.276,9.414-13.808,12.552-23.85
		c3.138-9.414,4.393-20.711,4.393-33.264V315.062h19.456V492.678L410.46,492.678z"/>
	<path fill="#B45F17" d="M479.498,317.167l14.081,0.372c1.883,0,0,0,1.255,0.628c1.255,0.627,3.002,1.799,3.63,3.682l90.542,221.384
		c2.511,5.648,5.938,11.312,7.193,17.588c1.255-6.904,5.057-14.795,7.567-19.816l90.377-220.92c0.627-1.256,1.255-2.511,2.51-3.766
		c1.256-1.256,2.511-1.256,4.394-1.256h15.063L606.276,581.172H589.33L479.498,317.167z"/>
	<path fill="#B45F17" d="M719.875,581.172h-19.457V315.062h19.457V581.172z"/>
	<g opacity="0.9">
		<polygon points="701.046,440.586 694.143,453.138 694.77,453.138 694.143,453.138 688.494,463.18 694.143,453.138 
			693.515,453.138 694.143,453.138 824.687,453.138 818.41,440.586 		"/>
		<path d="M763.18,315.062h-19.456L634.519,584.938h14.436c1.883,0,3.138-1.256,4.394-1.883c1.255-0.628,1.883-2.511,2.51-3.766
			l18.829-46.444l0,0v0.628l12.552-30.125l0,0l5.648-12.553l0,0l0,0l12.553-32.636l42.05-104.812
			c0.628-2.511,1.883-5.021,2.511-7.532c0.628-2.51,1.883-5.648,2.511-8.786c0.627,3.138,1.883,5.648,2.511,8.159
			c0.627,2.51,1.883,5.021,2.51,6.903l37.029,91.632l0,0v-1.255l17.573,41.423l0,0l5.648,15.689l31.381,77.825
			c0.628,1.255,1.255,3.766,2.511,4.393c1.255,1.256,2.51,2.511,4.393,2.511h15.063L763.18,315.062z"/>
	</g>
	<g>
		<path fill="none" d="M490.167,349.269c-0.627-1.884-1.883-4.394-2.51-7.532c-0.628-2.51-1.883-5.648-2.511-8.786
			c-0.628,3.138-1.883,5.648-2.511,8.786c-0.627,2.511-1.883,5.021-2.511,7.532l-41.904,103.558l-4.519,11.13l0.454-1.085
			l-8.633,21.334h1.903l0.991-1.704l-0.991,1.704h0.324h115h2.02l-6.729-16.629L490.167,349.269z"/>
		<path fill="#B45F17" d="M495.816,315.377h-19.457L375.595,561.826c3.114-2.264,7.287-1.716,8.506-2.935
			c1.255-1.256,4.393-9.414,5.021-10.67l5.021-1.255l7.532-6.903l18.201-41.423l5.648-14.436l8.633-21.334l-0.454,1.085
			l-17.197,42.354l17.197-42.354l-20.202,48.23l20.202-48.23l4.519-11.13l41.904-103.558c0.628-2.511,1.884-5.021,2.511-7.532
			c0.628-3.138,1.883-5.648,2.511-8.786c0.628,3.138,1.883,6.276,2.511,8.786c0.627,3.139,1.883,5.648,2.51,7.532l47.874,118.308
			l6.729,16.629l6.276,14.436l31.381,77.196c0.628,1.883,1.255,2.511,2.511,3.766c1.255,0.628,2.51,1.256,4.393,1.256h15.063
			L495.816,315.377z"/>
		<polygon fill="#B45F17" points="422.271,453.139 548.021,453.139 543.674,440.586 427.271,440.586 		"/>
	</g>
	<g>
		<polygon points="1054.834,440.586 1050.299,453.139 1172.794,453.139 1167.992,440.586 		"/>
		<path d="M1119.665,316.945h-19.456L991.004,583.682h14.436c1.883,0,3.139,0,4.394-1.255s1.883-2.511,2.511-3.766l31.38-77.196
			l-0.408,1.004l5.46-15.439h-0.03l0.236-0.583l0.001-0.004l-0.001,0.004l54.366-134.354c0.627-2.51,1.883-5.021,2.51-7.531
			c0.628-3.138,1.883-5.648,2.511-8.786c0.628,3.138,1.883,6.275,2.511,8.786c0.627,3.138,1.883,5.648,2.51,7.531l54.604,134.938
			l6.275,14.436l31.381,77.196c0.628,1.883,1.256,3.138,2.511,3.766s2.511,1.255,4.394,1.255h15.062L1119.665,316.945z"/>
	</g>
</g>
<polygon id="t1" fill="none" stroke="#000000" stroke-miterlimit="10" points="1261.506,625.732 753.766,688.494 251.046,625.732 
	251.046,280.544 756.276,217.782 1261.506,280.544 ">
<animate  fill="freeze" restart="always" calcMode="linear" additive="replace" accumulate="none" dur="0.3" repeatCount="1" to="0" from="1" attributeName="opacity" begin="boton.click" id="a1">
	</animate>
</polygon>
<polygon id="t2" fill="none" stroke="#000000" stroke-miterlimit="10" points="1324.268,644.561 753.766,732.427 188.285,644.561 
	188.285,261.715 756.276,173.849 1324.268,261.715 ">
<animate  fill="freeze" restart="always" calcMode="linear" additive="replace" accumulate="none" dur="0.1" repeatCount="1" to="1" from="0" attributeName="opacity" begin="a1.end-0.15" id="a2">
	</animate>
<animate  fill="freeze" restart="always" calcMode="linear" additive="replace" accumulate="none" dur="0.1" repeatCount="1" to="0" from="1" attributeName="opacity" begin="a2.end" id="a2·">
	</animate>
</polygon>
<polygon id="t3" fill="none" stroke="#000000" stroke-miterlimit="10" points="1380.753,663.389 756.276,776.359 131.799,663.389 
	131.799,242.887 756.276,129.916 1380.753,242.887 ">
<animate  fill="remove" restart="always" calcMode="linear" additive="replace" accumulate="none" dur="0.1" repeatCount="1" to="1" from="0" attributeName="opacity" begin="a2·.begin" id="a3">
	</animate>
<animate  fill="freeze" restart="always" calcMode="linear" additive="replace" accumulate="none" dur="0.1" repeatCount="1" to="0" from="1" attributeName="opacity" begin="a3.end" id="a3·">
	</animate>
</polygon>
<polygon id="t4" fill="none" stroke="#000000" stroke-miterlimit="10" points="1424.687,682.218 756.276,820.293 81.59,682.218 
	81.59,224.059 756.276,79.707 1424.687,224.059 ">
<animate  fill="remove" restart="always" calcMode="linear" additive="replace" accumulate="none" dur="0.1" repeatCount="1" to="1" from="0" attributeName="opacity" begin="a3·.begin" id="a4">
	</animate>
<animate  fill="freeze" restart="always" calcMode="linear" additive="replace" accumulate="none" dur="0.1" repeatCount="1" to="0" from="1" attributeName="opacity" begin="a4.end" id="a4·">
	</animate>
</polygon>
<polygon id="t5" fill="none" stroke="#000000" stroke-miterlimit="10" points="1481.172,701.046 756.276,864.226 18.829,701.046 
	18.829,205.23 756.276,35.774 1481.172,205.23 ">
<animate  fill="freeze" restart="always" calcMode="linear" additive="replace" accumulate="none" dur="0.1" repeatCount="1" to="1" from="0" attributeName="opacity" begin="a4·.begin" id="a5">
	</animate>
<animate  fill="freeze" restart="always" calcMode="linear" additive="replace" accumulate="none" dur="0.1" repeatCount="1" to="#B45F17" from="#000000" attributeName="stroke" begin="a5.end" id="a5·">
	</animate>
<animate  fill="freeze" restart="always" calcMode="linear" additive="replace" accumulate="none" dur="0.4" repeatCount="1" to="#0" from="1" attributeName="opacity" begin="a5·.end" id="a5··">
	</animate>
</polygon>
<rect id="boton" x="298.117" y="315.062" fill-opacity="0" width="928.87" height="269.875"/>
</svg>
